<svg viewBox="0 0 250 250" xmlns="http://www.w3.org/2000/svg"><path d="m236.2 0h-222.4a13.8 13.8 0 0 0 -13.8 13.8v222.4a13.8 13.8 0 0 0 13.8 13.8h119.74v-96.68h-32.47v-37.84h32.47v-27.85c0-32.29 19.72-49.87 48.53-49.87a267.49 267.49 0 0 1 29.11 1.48v33.76h-19.86c-15.68 0-18.71 7.45-18.71 18.38v24.1h37.47l-4.88 37.84h-32.59v96.68h63.59a13.8 13.8 0 0 0 13.8-13.8v-222.4a13.8 13.8 0 0 0 -13.8-13.8z"/><path d="m172.61 250v-96.68h32.59l4.88-37.84h-37.47v-24.1c0-10.93 3-18.38 18.71-18.38h19.86v-33.76a267.49 267.49 0 0 0 -29.11-1.48c-28.81 0-48.53 17.58-48.53 49.87v27.85h-32.47v37.84h32.47v96.68z" fill="#fff"/></svg>