<svg viewBox="0 0 764.89 162.42" xmlns="http://www.w3.org/2000/svg" style="fill: white;"><path d="m102.11 27.86-19.88 10.54q-5.1-8-9.68-11.22a28 28 0 0 0 -17.16-5.43q-11.05 0-18.27 6.11a19.59 19.59 0 0 0 -7.22 15.64 18.54 18.54 0 0 0 6.8 14.78q3.22 2.88 20 9.34l15.12 5.95q18.51 7.13 26.76 16.56t8.24 23.36q0 21.58-16.48 36-15 12.92-36.87 12.91-38.18.02-53.47-39.4l21.41-9q7 14.63 14.27 20.39t18.86 5.78q13.92 0 21.58-9a25 25 0 0 0 6.11-16.48q0-8.66-5.18-13.42t-22-11.21l-16.65-6.64q-31.61-12.23-31.6-38.91 0-20.2 15.29-32.62 14.43-11.89 33.98-11.89 30.41 0 46.04 27.86z"/><path d="m211.53 0q34.47 0 57.93 26.5 20.22 22.95 20.22 54.5 0 37-26.16 61-22.26 20.39-53.35 20.38-36 0-59.13-26.5-20.22-22.88-20.22-55.35 0-36.18 26.17-60.14 22.26-20.39 54.54-20.39zm-.34 22.6q-27.52 0-43.5 20.39-11.9 15.12-11.89 37.71 0 27.52 16.14 43.67 15.47 15.63 38.23 15.63 27 0 42.81-20.39 11.73-15.28 11.73-38.4 0-26.83-16-43a50.82 50.82 0 0 0 -37.52-15.61z"/><path d="m348.47 21.41q17.16-21.41 46.38-21.41 28.36 0 46.21 19.54a54.12 54.12 0 0 1 12.23 22.17q3.73 13 3.74 33.05v83.59h-24.8v-80.54q0-16.82-2.38-26.41a35.73 35.73 0 0 0 -8.16-15.89q-10.87-11.73-29.05-11.72-22.61 0-34.49 14.61-9.69 11.72-9.68 42.81v77.14h-24.81v-154.27h24.81z"/><path d="m648 158.35h-24.8v-20.22q-21.75 24.3-54.2 24.29a74.21 74.21 0 0 1 -37.89-10.36 77.05 77.05 0 0 1 -29.73-30.24 81.75 81.75 0 0 1 -10.38-40.61q0-36.85 26.17-60.82 22.44-20.39 51.83-20.39 31.77 0 54.2 24.47v-20.39h24.8zm-76.79-135.92q-27.36 0-43.33 20.39-11.88 15.29-11.88 37.71 0 27.71 16.14 43.84 15.44 15.63 38.05 15.63 26.5 0 42-20.56 11.51-15.28 11.52-38.44 0-26.67-15.63-43-14.95-15.57-36.87-15.57z"/><path d="m716.64 21.41q14.28-17.5 40.1-17.5 4.41 0 8.15.34v22.25q-4.08-.16-6.79-.17-15.81 0-26 7.65a34.32 34.32 0 0 0 -12.1 17.59q-3.4 10.95-3.4 32.36v74.42h-24.77v-154.27h24.81z"/></svg>
